<svg width="27" height="28" viewBox="0 0 27 28" fill="none" xmlns="http://www.w3.org/2000/svg">
<path d="M15.0978 23.5439L15.277 23.5264L15.438 23.6069L21.354 26.5649V21.6798V21.3549L21.6199 21.1683C24.5228 19.1309 26.3494 16.035 26.3494 12.5899C26.3494 6.5734 20.7473 1.55893 13.6533 1.55893C6.56085 1.55893 0.957169 6.57344 0.957169 12.5899C0.957169 18.6063 6.56085 23.6209 13.6533 23.6209C14.1388 23.6209 14.6173 23.5908 15.0978 23.5439ZM20.0345 25.6341L15.171 23.2041H15.1707H15.1683H15.1659H15.1634H15.161H15.1585H15.1559H15.1534H15.1508H15.1482H15.1456H15.1429H15.1403H15.1376H15.1348H15.1321H15.1293H15.1265H15.1237H15.1208H15.118H15.1151H15.1122H15.1092H15.1062H15.1032H15.1002H15.0971H15.0941H15.091H15.0878H15.0847H15.0815H15.0783H15.075H15.0718H15.0685H15.0651H15.0618H15.0584H15.055H15.0516H15.0481H15.0446H15.0411H15.0376H15.034H15.0304H15.0268H15.0231H15.0194H15.0157H15.012H15.0082H15.0044H15.0006H14.9967H14.9928H14.9889H14.985H14.981H14.977H14.973H14.9689H14.9648H14.9607H14.9565H14.9523H14.9481H14.9439H14.9396H14.9353H14.9309H14.9265H14.9221H14.9177H14.9132H14.9087H14.9042H14.8997H14.8951H14.8904H14.8858H14.8811H14.8764H14.8716H14.8668H14.862H14.8572H14.8523H14.8474H14.8424H14.8374H14.8324H14.8274H14.8223H14.8172H14.812H14.8068H14.8016H14.7963H14.7911H14.7857H14.7804H14.775H14.7696H14.7641H14.7586H14.7531H14.7475H14.7419H14.7363H14.7306H14.7249H14.7192H14.7134H14.7076H14.7018H14.6959H14.69H14.684H14.678H14.672H14.6659H14.6598H14.6537H14.6475H14.6413H14.6351H14.6288H14.6224H14.6161H14.6097H14.6033H14.5968H14.5903H14.5837H14.5771H14.5705H14.5639H14.5572H14.5504H14.5436H14.5368H14.53H14.5231H14.5162H14.5092H14.5022H14.4951H14.488H14.4809H14.4737H14.4665H14.4593H14.452H14.4447H14.4373H14.4299H14.4225H14.415H14.4074H14.3999H14.3923H14.3846H14.3769H14.3692H14.3614H14.3536H14.3458H14.3379H14.3299H14.3219H14.3139H14.3058H14.2977H14.2896H14.2814H14.2732H14.2649H14.2566H14.2482H14.2398H14.2314H14.2229H14.2143H14.2058H14.1971H14.1885H14.1798H14.171H14.1622H14.1534H14.1445H14.1356H14.1266H14.1176H14.1086H14.0995H14.0903H14.0811H14.0719H14.0626H14.0533H14.0439H14.0345H14.025H14.0155H14.006H13.9964H13.9867H13.977H13.9673H13.9575H13.9477H13.9378H13.9279H13.9179H13.9079H13.8978H13.8877H13.8776H13.8674H13.8571H13.8468H13.8365H13.8261H13.8156H13.8052H13.7946H13.784H13.7734H13.7627H13.752H13.7412H13.7304H13.7195H13.7086H13.6976H13.6866H13.6756H13.6644H13.6533C6.9662 23.2041 1.37231 18.537 1.37231 12.5883C1.37231 6.63956 6.9662 1.97244 13.6533 1.97244C20.3421 1.97244 25.9342 6.63961 25.9342 12.5883C25.9342 16.1154 23.9298 19.1731 20.9388 21.0808V25.075V26.0859L20.0345 25.6341Z" fill="#2A2A2A" stroke="black" stroke-width="1.25"/>
</svg>
