<svg width="30" height="28" viewBox="0 0 30 28" fill="none" xmlns="http://www.w3.org/2000/svg">
<path d="M15.1994 26.0846C15.1219 26.1584 15.0507 26.2259 14.9862 26.2869C14.9218 26.2259 14.8506 26.1584 14.7731 26.0846C14.3654 25.6968 13.7825 25.1367 13.0827 24.449C11.6826 23.0731 9.81763 21.189 7.95416 19.1531C6.08828 17.1145 4.23543 14.9361 2.85284 12.97C2.1613 11.9867 1.59673 11.0695 1.20727 10.259C0.811945 9.4364 0.625 8.78019 0.625 8.30261C0.625 5.77754 1.28154 4.02367 2.50609 2.88975C3.74025 1.74693 5.66487 1.12736 8.42976 1.12736C8.98383 1.12736 9.63778 1.34332 10.3427 1.72388C11.0394 2.09995 11.7357 2.60923 12.3613 3.13121C12.9849 3.65147 13.5255 4.17353 13.9107 4.56631C14.1029 4.76232 14.2555 4.92521 14.3594 5.03834C14.4114 5.09488 14.4511 5.13893 14.4774 5.16841L14.5067 5.20141L14.5136 5.20921L14.515 5.21084L14.5151 5.21094L14.5152 5.21106L14.5152 5.21108L14.9862 5.75139L15.4572 5.21108L15.4573 5.21106L15.4574 5.21094L15.4574 5.21084L15.4589 5.20921L15.4657 5.20141L15.4951 5.16841C15.5214 5.13893 15.5611 5.09488 15.613 5.03834C15.7169 4.92521 15.8695 4.76232 16.0618 4.56631C16.447 4.17353 16.9875 3.65147 17.6111 3.13121C18.2368 2.60923 18.9331 2.09995 19.6297 1.72388C20.3347 1.34332 20.9886 1.12736 21.5427 1.12736C24.3077 1.12736 26.2323 1.74656 27.4664 2.88916C28.6909 4.02284 29.3475 5.77666 29.3475 8.30261C29.3475 8.78019 29.1605 9.4364 28.7652 10.259C28.3757 11.0695 27.8112 11.9867 27.1196 12.97C25.737 14.9361 23.8842 17.1145 22.0183 19.1531C20.1548 21.189 18.2898 23.0731 16.8898 24.449C16.19 25.1367 15.6071 25.6968 15.1994 26.0846Z" fill="#C31815" stroke="black" stroke-width="1.25"/>
</svg>
