<svg width="22" height="28" viewBox="0 0 22 28" fill="none" xmlns="http://www.w3.org/2000/svg">
<path fill-rule="evenodd" clip-rule="evenodd" d="M19.978 27.5101H1.66148C0.740654 27.5101 -0.00366211 26.7657 -0.00366211 25.8465V9.19355C-0.00366211 8.27439 0.740654 7.52841 1.66148 7.52841H4.15918V9.19355H2.49404C2.03447 9.19355 1.66148 9.5682 1.66148 10.0261V25.0124C1.66148 25.4736 2.03447 25.8465 2.49404 25.8465H19.1454C19.6033 25.8465 19.978 25.4736 19.978 25.0124V10.0261C19.978 9.5682 19.6033 9.19355 19.1454 9.19355H17.4803V7.52841H19.978C20.8971 7.52841 21.6431 8.27439 21.6431 9.19355V25.8465C21.6431 26.7657 20.8971 27.5101 19.978 27.5101ZM14.4264 6.45761L11.6523 3.68347V20.0169C11.6523 20.4765 11.2776 20.8495 10.8197 20.8495C10.3602 20.8495 9.98716 20.4765 9.98716 20.0169V3.68347L7.21139 6.45761C6.89501 6.77566 6.37872 6.77566 6.06234 6.45761C5.74596 6.1429 5.74596 5.6251 6.06234 5.31039L10.1754 1.19572C10.1804 1.18906 10.1903 1.18592 10.1953 1.17926C10.2136 1.15761 10.207 1.1259 10.227 1.10425C10.2586 1.07428 10.3035 1.08427 10.3368 1.06096C10.46 0.961051 10.6032 0.892727 10.7714 0.881071C10.7847 0.881071 10.7965 0.872737 10.8081 0.872737C10.8131 0.872737 10.8164 0.867859 10.8214 0.867859C10.8264 0.867859 10.8298 0.871072 10.8348 0.872737C10.8448 0.871072 10.8514 0.877819 10.8614 0.877819C11.0596 0.88781 11.2393 0.965993 11.3775 1.08921C11.3891 1.10087 11.4075 1.09589 11.4175 1.10588C11.4275 1.1192 11.4225 1.13756 11.4342 1.14755C11.4409 1.15421 11.4391 1.16748 11.4458 1.1758L15.5787 5.31039C15.8968 5.6251 15.8968 6.1429 15.5787 6.45761C15.259 6.77732 14.7445 6.77732 14.4264 6.45761Z" fill="#2A2A2A"/>
</svg>
